<svg xmlns="http://www.w3.org/2000/svg" viewBox="0 0 600 600" style=""><defs><style>.cls-1{fill:none;}.cls-1,.cls-2,.cls-3{stroke:#cecece;stroke-linecap:round;stroke-linejoin:round;stroke-width:4px;}.cls-2{fill:#efefef;}.cls-3{fill:#fcfcfc;}</style></defs><title>Images</title><g id="Monochrome_Images" data-name="Monochrome Images"><g id="Graph"><path class="cls-1 rFaKLpba_0" width="242.55" height="230.31" d="M 189.45,237.89 L 406,237.89 A 13,13,0,0,1,419,250.89 L 419,455.2 A 13,13,0,0,1,406,468.2 L 189.45,468.2 A 13,13,0,0,1,176.45,455.2 L 176.45,250.89 A 13,13,0,0,1,189.45,237.89"></path><path class="cls-1 rFaKLpba_1" d="M176.44,392.24a45.28,45.28,0,0,1,27.67-8.83c39.44,0,44.06,41.18,68.27,41.18s52.78-60.69,65.52-82.74c37.57-65,62.05-44.94,81.09-21"></path><path class="cls-2 rFaKLpba_2" d="M337.9,341.85c-12.74,22-41.31,82.74-65.52,82.74s-28.83-41.18-68.27-41.18a45.28,45.28,0,0,0-27.67,8.83V455A13.15,13.15,0,0,0,189.6,468.2H405.84A13.15,13.15,0,0,0,419,455V320.85C400,296.92,375.47,276.84,337.9,341.85Z"></path><path class="cls-3 rFaKLpba_3" d="M195.49,382.71A9.53,9.53 0,1,1 214.55,382.71A9.53,9.53 0,1,1 195.49,382.71"></path><path class="cls-3 rFaKLpba_4" d="M263.93,422.16A9.53,9.53 0,1,1 282.98999999999995,422.16A9.53,9.53 0,1,1 263.93,422.16"></path><path class="cls-3 rFaKLpba_5" d="M376.37,298A9.53,9.53 0,1,1 395.42999999999995,298A9.53,9.53 0,1,1 376.37,298"></path><path class="cls-1 rFaKLpba_6" d="M139.29,468.2L459.15,468.2"></path><path class="cls-1 rFaKLpba_7" d="M178.59,390.81c-16.9,8.1-33.94,46.49-67.88,46.49"></path><path class="cls-1 rFaKLpba_8" d="M412.23,312.91l21.45,30.62c12.22,17.45,31.73,28.76,53,29.58q1.3.05,2.6.05"></path></g></g><style data-made-with="vivus-instant">.rFaKLpba_0{stroke-dasharray:924 926;stroke-dashoffset:925;animation:rFaKLpba_draw 2666ms ease-out 0ms forwards;}.rFaKLpba_1{stroke-dasharray:331 333;stroke-dashoffset:332;animation:rFaKLpba_draw 2666ms ease-out 166ms forwards;}.rFaKLpba_2{stroke-dasharray:785 787;stroke-dashoffset:786;animation:rFaKLpba_draw 2666ms ease-out 333ms forwards;}.rFaKLpba_3{stroke-dasharray:60 62;stroke-dashoffset:61;animation:rFaKLpba_draw 2666ms ease-out 500ms forwards;}.rFaKLpba_4{stroke-dasharray:60 62;stroke-dashoffset:61;animation:rFaKLpba_draw 2666ms ease-out 666ms forwards;}.rFaKLpba_5{stroke-dasharray:60 62;stroke-dashoffset:61;animation:rFaKLpba_draw 2666ms ease-out 833ms forwards;}.rFaKLpba_6{stroke-dasharray:320 322;stroke-dashoffset:321;animation:rFaKLpba_draw 2666ms ease-out 1000ms forwards;}.rFaKLpba_7{stroke-dasharray:85 87;stroke-dashoffset:86;animation:rFaKLpba_draw 2666ms ease-out 1166ms forwards;}.rFaKLpba_8{stroke-dasharray:103 105;stroke-dashoffset:104;animation:rFaKLpba_draw 2666ms ease-out 1333ms forwards;}@keyframes rFaKLpba_draw{100%{stroke-dashoffset:0;}}@keyframes rFaKLpba_fade{0%{stroke-opacity:1;}95.1219512195122%{stroke-opacity:1;}100%{stroke-opacity:0;}}</style></svg>